<svg width="720" height="720" viewBox="0 0 720 720" fill="none" xmlns="http://www.w3.org/2000/svg">
<circle cx="360" cy="360" r="360" fill="url(#paint0_linear_1_6)"/>
<circle cx="360" cy="360" r="350" fill="#1C1C1E"/>
<mask id="mask0_1_6" style="mask-type:alpha" maskUnits="userSpaceOnUse" x="10" y="10" width="700" height="700">
<circle cx="360" cy="360" r="350" fill="#1C1C1E"/>
</mask>
<g mask="url(#mask0_1_6)">
<path d="M359 360L764.5 193L709 716L359 360Z" fill="url(#paint1_linear_1_6)"/>
</g>
<circle cx="360" cy="360" r="35" fill="#14181B" fill-opacity="0.9" stroke="url(#paint2_linear_1_6)" stroke-width="4"/>
<rect x="54.8522" y="481.933" width="36" height="8" rx="4" transform="rotate(-22.5 54.8522 481.933)" fill="#F2F2F7"/>
<rect x="625.81" y="245.435" width="36" height="8" rx="4" transform="rotate(-22.5 625.81 245.435)" fill="#F2F2F7"/>
<rect x="124.096" y="588.803" width="36" height="8" rx="4" transform="rotate(-45 124.096 588.803)" fill="#F2F2F7"/>
<rect x="561.088" y="151.811" width="36" height="8" rx="4" transform="rotate(-45 561.088 151.811)" fill="#F2F2F7"/>
<rect x="465.814" y="89.489" width="36" height="8" rx="4" transform="rotate(-67.5 465.814 89.489)" fill="#F2F2F7"/>
<rect x="243.435" y="93.1733" width="36" height="8" rx="4" transform="rotate(-112.5 243.435 93.1733)" fill="#F2F2F7"/>
<rect x="353.492" y="69.4915" width="36" height="8" rx="4" transform="rotate(-90 353.492 69.4915)" fill="#F2F2F7"/>
<rect x="129.753" y="125.816" width="36" height="8" rx="4" transform="rotate(45 129.753 125.816)" fill="#F2F2F7"/>
<rect x="566.745" y="562.808" width="36" height="8" rx="4" transform="rotate(45 566.745 562.808)" fill="#F2F2F7"/>
<rect x="30.9044" y="356.677" width="36" height="8" rx="4" transform="rotate(0.5 30.9044 356.677)" fill="#F2F2F7"/>
<rect x="648.869" y="356.834" width="36" height="8" rx="4" fill="#F2F2F7"/>
<rect x="57.2909" y="232.001" width="36" height="8" rx="4" transform="rotate(22.5 57.2909 232.001)" fill="#F2F2F7"/>
<rect x="628.248" y="468.5" width="36" height="8" rx="4" transform="rotate(22.5 628.248 468.5)" fill="#F2F2F7"/>
<path d="M190.019 557.668C186.506 557.668 183.735 556.412 181.706 553.901C179.677 551.39 178.663 547.945 178.663 543.566C178.663 539.188 179.677 535.755 181.706 533.269C183.747 530.782 186.518 529.539 190.019 529.539C193.507 529.539 196.265 530.782 198.294 533.269C200.323 535.755 201.337 539.181 201.337 543.548C201.337 547.914 200.323 551.359 198.294 553.883C196.278 556.406 193.519 557.668 190.019 557.668ZM186.771 550.079C187.576 551.601 188.658 552.361 190.019 552.361C191.379 552.361 192.449 551.607 193.229 550.098C194.02 548.576 194.416 546.399 194.416 543.566C194.416 540.734 194.02 538.575 193.229 537.091C192.449 535.594 191.379 534.846 190.019 534.846C188.658 534.846 187.576 535.594 186.771 537.091C185.98 538.588 185.584 540.74 185.584 543.548C185.584 546.381 185.98 548.558 186.771 550.079Z" fill="#F2F2F7"/>
<path d="M115.788 458.464C115.788 455.817 116.747 453.671 118.664 452.025C120.581 450.38 123.099 449.558 126.216 449.558C129.234 449.558 131.659 450.294 133.489 451.766C135.332 453.238 136.254 455.155 136.254 457.518C136.254 458.186 136.149 458.86 135.938 459.54C135.728 460.208 135.481 460.802 135.196 461.321C134.912 461.828 134.522 462.385 134.027 462.991C133.545 463.585 133.131 464.061 132.784 464.42C132.438 464.766 131.986 465.205 131.43 465.737L125.028 471.638V471.768H136.588V477H116.178V472.454L126.624 462.843C127.75 461.767 128.535 460.857 128.98 460.115C129.438 459.361 129.667 458.569 129.667 457.74C129.667 456.874 129.327 456.151 128.646 455.569C127.966 454.976 127.082 454.679 125.993 454.679C124.843 454.679 123.89 455.037 123.136 455.755C122.394 456.46 122.022 457.363 122.022 458.464V458.594H115.788V458.464ZM150.782 477.668C147.269 477.668 144.498 476.412 142.47 473.901C140.441 471.39 139.427 467.945 139.427 463.566C139.427 459.188 140.441 455.755 142.47 453.269C144.511 450.782 147.282 449.539 150.782 449.539C154.271 449.539 157.029 450.782 159.058 453.269C161.086 455.755 162.101 459.181 162.101 463.548C162.101 467.914 161.086 471.359 159.058 473.883C157.041 476.406 154.283 477.668 150.782 477.668ZM147.535 470.079C148.339 471.601 149.422 472.361 150.782 472.361C152.143 472.361 153.213 471.607 153.992 470.098C154.784 468.576 155.18 466.399 155.18 463.566C155.18 460.734 154.784 458.575 153.992 457.091C153.213 455.594 152.143 454.846 150.782 454.846C149.422 454.846 148.339 455.594 147.535 457.091C146.743 458.588 146.348 460.74 146.348 463.548C146.348 466.381 146.743 468.558 147.535 470.079Z" fill="#F2F2F7"/>
<path d="M535.45 458.464C535.45 455.817 536.409 453.671 538.326 452.025C540.243 450.38 542.761 449.558 545.878 449.558C548.896 449.558 551.321 450.294 553.151 451.766C554.994 453.238 555.916 455.155 555.916 457.518C555.916 458.186 555.811 458.86 555.601 459.54C555.39 460.208 555.143 460.802 554.858 461.321C554.574 461.828 554.184 462.385 553.689 462.991C553.207 463.585 552.793 464.061 552.446 464.42C552.1 464.766 551.648 465.205 551.092 465.737L544.69 471.638V471.768H556.25V477H535.84V472.454L546.286 462.843C547.412 461.767 548.197 460.857 548.643 460.115C549.1 459.361 549.329 458.569 549.329 457.74C549.329 456.874 548.989 456.151 548.309 455.569C547.628 454.976 546.744 454.679 545.655 454.679C544.505 454.679 543.552 455.037 542.798 455.755C542.056 456.46 541.685 457.363 541.685 458.464V458.594H535.45V458.464ZM559.126 458.464C559.126 455.817 560.085 453.671 562.002 452.025C563.919 450.38 566.437 449.558 569.554 449.558C572.572 449.558 574.996 450.294 576.827 451.766C578.67 453.238 579.592 455.155 579.592 457.518C579.592 458.186 579.487 458.86 579.276 459.54C579.066 460.208 578.819 460.802 578.534 461.321C578.25 461.828 577.86 462.385 577.365 462.991C576.883 463.585 576.468 464.061 576.122 464.42C575.776 464.766 575.324 465.205 574.768 465.737L568.366 471.638V471.768H579.926V477H559.516V472.454L569.962 462.843C571.088 461.767 571.873 460.857 572.318 460.115C572.776 459.361 573.005 458.569 573.005 457.74C573.005 456.874 572.665 456.151 571.984 455.569C571.304 454.976 570.42 454.679 569.331 454.679C568.181 454.679 567.228 455.037 566.474 455.755C565.731 456.46 565.36 457.363 565.36 458.464V458.594H559.126V458.464ZM594.12 477.668C590.607 477.668 587.836 476.412 585.808 473.901C583.779 471.39 582.765 467.945 582.765 463.566C582.765 459.188 583.779 455.755 585.808 453.269C587.849 450.782 590.619 449.539 594.12 449.539C597.608 449.539 600.367 450.782 602.396 453.269C604.424 455.755 605.438 459.181 605.438 463.548C605.438 467.914 604.424 471.359 602.396 473.883C600.379 476.406 597.621 477.668 594.12 477.668ZM590.873 470.079C591.677 471.601 592.759 472.361 594.12 472.361C595.481 472.361 596.551 471.607 597.33 470.098C598.122 468.576 598.518 466.399 598.518 463.566C598.518 460.734 598.122 458.575 597.33 457.091C596.551 455.594 595.481 454.846 594.12 454.846C592.759 454.846 591.677 455.594 590.873 457.091C590.081 458.588 589.686 460.74 589.686 463.548C589.686 466.381 590.081 468.558 590.873 470.079Z" fill="#F2F2F7"/>
<path d="M101.534 374V369.658H88.3047V363.962C89.5046 361.649 90.8776 359.218 92.4238 356.67C93.9824 354.109 96.0111 350.961 98.5098 347.226H107.973V364.352H111.312V369.658H107.973V374H101.534ZM94.0752 364.407V364.593H101.72V351.827H101.59C99.7962 354.499 98.349 356.744 97.248 358.562C96.1595 360.368 95.1019 362.317 94.0752 364.407ZM125.191 374.668C121.678 374.668 118.908 373.412 116.879 370.901C114.85 368.39 113.836 364.945 113.836 360.566C113.836 356.188 114.85 352.755 116.879 350.269C118.92 347.782 121.691 346.539 125.191 346.539C128.68 346.539 131.438 347.782 133.467 350.269C135.495 352.755 136.51 356.181 136.51 360.548C136.51 364.914 135.495 368.359 133.467 370.883C131.451 373.406 128.692 374.668 125.191 374.668ZM121.944 367.079C122.748 368.601 123.831 369.361 125.191 369.361C126.552 369.361 127.622 368.607 128.401 367.098C129.193 365.576 129.589 363.399 129.589 360.566C129.589 357.734 129.193 355.575 128.401 354.091C127.622 352.594 126.552 351.846 125.191 351.846C123.831 351.846 122.748 352.594 121.944 354.091C121.153 355.588 120.757 357.74 120.757 360.548C120.757 363.381 121.153 365.558 121.944 367.079Z" fill="#F2F2F7"/>
<path d="M126.161 275.668C124.281 275.668 122.574 275.297 121.04 274.555C119.506 273.812 118.251 272.743 117.273 271.345C115.443 268.933 114.527 265.723 114.527 261.715C114.527 257.324 115.573 253.866 117.663 251.343C119.766 248.819 122.605 247.558 126.18 247.558C128.876 247.558 131.183 248.269 133.101 249.691C135.03 251.114 136.174 252.951 136.533 255.202H129.909C129.687 254.472 129.229 253.885 128.536 253.439C127.856 252.994 127.064 252.771 126.161 252.771C124.466 252.771 123.143 253.569 122.19 255.165C121.238 256.748 120.83 258.895 120.966 261.604H121.096C121.615 260.268 122.481 259.21 123.693 258.431C124.906 257.639 126.359 257.243 128.054 257.243C130.577 257.243 132.674 258.078 134.344 259.748C136.026 261.418 136.867 263.521 136.867 266.057C136.867 268.877 135.865 271.184 133.861 272.978C131.857 274.771 129.291 275.668 126.161 275.668ZM126.087 270.417C127.274 270.417 128.276 270.015 129.093 269.211C129.922 268.407 130.336 267.424 130.336 266.261C130.336 265.086 129.928 264.102 129.111 263.311C128.307 262.519 127.305 262.123 126.105 262.123C124.906 262.123 123.897 262.519 123.081 263.311C122.277 264.102 121.875 265.079 121.875 266.242C121.875 267.417 122.283 268.407 123.1 269.211C123.916 270.015 124.912 270.417 126.087 270.417ZM151.173 275.668C147.66 275.668 144.889 274.412 142.86 271.901C140.832 269.39 139.817 265.945 139.817 261.566C139.817 257.188 140.832 253.755 142.86 251.269C144.901 248.782 147.672 247.539 151.173 247.539C154.661 247.539 157.42 248.782 159.448 251.269C161.477 253.755 162.491 257.181 162.491 261.548C162.491 265.914 161.477 269.359 159.448 271.883C157.432 274.406 154.674 275.668 151.173 275.668ZM147.926 268.079C148.73 269.601 149.812 270.361 151.173 270.361C152.534 270.361 153.604 269.607 154.383 268.098C155.174 266.576 155.57 264.399 155.57 261.566C155.57 258.734 155.174 256.575 154.383 255.091C153.604 253.594 152.534 252.846 151.173 252.846C149.812 252.846 148.73 253.594 147.926 255.091C147.134 256.588 146.738 258.74 146.738 261.548C146.738 264.381 147.134 266.558 147.926 268.079Z" fill="#F2F2F7"/>
<path d="M544.707 275V254.2H544.577L537.879 258.728V252.864L544.688 248.226H551.479V275H544.707ZM568.253 275.668C564.802 275.668 562.031 274.944 559.94 273.497C557.85 272.037 556.805 270.12 556.805 267.745C556.805 265.939 557.411 264.411 558.623 263.162C559.848 261.9 561.437 261.146 563.392 260.898V260.769C561.759 260.447 560.429 259.723 559.402 258.598C558.388 257.472 557.881 256.155 557.881 254.646C557.881 252.58 558.846 250.885 560.775 249.562C562.717 248.226 565.21 247.558 568.253 247.558C571.308 247.558 573.801 248.226 575.73 249.562C577.66 250.897 578.625 252.598 578.625 254.664C578.625 256.148 578.118 257.46 577.104 258.598C576.089 259.723 574.772 260.447 573.151 260.769V260.898C575.106 261.158 576.689 261.919 577.901 263.181C579.114 264.43 579.72 265.958 579.72 267.764C579.72 270.126 578.662 272.037 576.547 273.497C574.444 274.944 571.679 275.668 568.253 275.668ZM568.253 270.992C569.527 270.992 570.566 270.64 571.37 269.935C572.174 269.217 572.576 268.32 572.576 267.244C572.576 266.168 572.174 265.277 571.37 264.572C570.566 263.867 569.527 263.515 568.253 263.515C566.991 263.515 565.958 263.867 565.154 264.572C564.35 265.277 563.948 266.168 563.948 267.244C563.948 268.32 564.35 269.217 565.154 269.935C565.958 270.64 566.991 270.992 568.253 270.992ZM568.253 258.839C569.317 258.839 570.195 258.523 570.888 257.893C571.58 257.262 571.927 256.476 571.927 255.536C571.927 254.584 571.58 253.792 570.888 253.161C570.195 252.53 569.317 252.215 568.253 252.215C567.201 252.215 566.329 252.53 565.637 253.161C564.944 253.792 564.598 254.584 564.598 255.536C564.598 256.476 564.944 257.262 565.637 257.893C566.329 258.523 567.201 258.839 568.253 258.839ZM593.877 275.668C590.364 275.668 587.593 274.412 585.564 271.901C583.536 269.39 582.521 265.945 582.521 261.566C582.521 257.188 583.536 253.755 585.564 251.269C587.605 248.782 590.376 247.539 593.877 247.539C597.365 247.539 600.124 248.782 602.152 251.269C604.181 253.755 605.195 257.181 605.195 261.548C605.195 265.914 604.181 269.359 602.152 271.883C600.136 274.406 597.378 275.668 593.877 275.668ZM590.63 268.079C591.434 269.601 592.516 270.361 593.877 270.361C595.238 270.361 596.308 269.607 597.087 268.098C597.879 266.576 598.274 264.399 598.274 261.566C598.274 258.734 597.879 256.575 597.087 255.091C596.308 253.594 595.238 252.846 593.877 252.846C592.516 252.846 591.434 253.594 590.63 255.091C589.838 256.588 589.442 258.74 589.442 261.548C589.442 264.381 589.838 266.558 590.63 268.079Z" fill="#F2F2F7"/>
<path d="M164.253 199.668C160.802 199.668 158.031 198.944 155.94 197.497C153.85 196.037 152.805 194.12 152.805 191.745C152.805 189.939 153.411 188.411 154.623 187.162C155.848 185.9 157.437 185.146 159.392 184.898V184.769C157.759 184.447 156.429 183.723 155.402 182.598C154.388 181.472 153.881 180.155 153.881 178.646C153.881 176.58 154.846 174.885 156.775 173.562C158.717 172.226 161.21 171.558 164.253 171.558C167.308 171.558 169.801 172.226 171.73 173.562C173.66 174.897 174.625 176.598 174.625 178.664C174.625 180.148 174.118 181.46 173.104 182.598C172.089 183.723 170.772 184.447 169.151 184.769V184.898C171.106 185.158 172.689 185.919 173.901 187.181C175.114 188.43 175.72 189.958 175.72 191.764C175.72 194.126 174.662 196.037 172.547 197.497C170.444 198.944 167.679 199.668 164.253 199.668ZM164.253 194.992C165.527 194.992 166.566 194.64 167.37 193.935C168.174 193.217 168.576 192.32 168.576 191.244C168.576 190.168 168.174 189.277 167.37 188.572C166.566 187.867 165.527 187.515 164.253 187.515C162.991 187.515 161.958 187.867 161.154 188.572C160.35 189.277 159.948 190.168 159.948 191.244C159.948 192.32 160.35 193.217 161.154 193.935C161.958 194.64 162.991 194.992 164.253 194.992ZM164.253 182.839C165.317 182.839 166.195 182.523 166.888 181.893C167.58 181.262 167.927 180.476 167.927 179.536C167.927 178.584 167.58 177.792 166.888 177.161C166.195 176.53 165.317 176.215 164.253 176.215C163.201 176.215 162.329 176.53 161.637 177.161C160.944 177.792 160.598 178.584 160.598 179.536C160.598 180.476 160.944 181.262 161.637 181.893C162.329 182.523 163.201 182.839 164.253 182.839ZM189.877 199.668C186.364 199.668 183.593 198.412 181.564 195.901C179.536 193.39 178.521 189.945 178.521 185.566C178.521 181.188 179.536 177.755 181.564 175.269C183.605 172.782 186.376 171.539 189.877 171.539C193.365 171.539 196.124 172.782 198.152 175.269C200.181 177.755 201.195 181.181 201.195 185.548C201.195 189.914 200.181 193.359 198.152 195.883C196.136 198.406 193.378 199.668 189.877 199.668ZM186.63 192.079C187.434 193.601 188.516 194.361 189.877 194.361C191.238 194.361 192.308 193.607 193.087 192.098C193.879 190.576 194.274 188.399 194.274 185.566C194.274 182.734 193.879 180.575 193.087 179.091C192.308 177.594 191.238 176.846 189.877 176.846C188.516 176.846 187.434 177.594 186.63 179.091C185.838 180.588 185.442 182.74 185.442 185.548C185.442 188.381 185.838 190.558 186.63 192.079Z" fill="#F2F2F7"/>
<path d="M496.411 199V178.2H496.281L489.583 182.728V176.864L496.393 172.226H503.184V199H496.411ZM520.161 199.668C518.281 199.668 516.574 199.297 515.04 198.555C513.506 197.812 512.251 196.743 511.273 195.345C509.443 192.933 508.527 189.723 508.527 185.715C508.527 181.324 509.573 177.866 511.663 175.343C513.766 172.819 516.605 171.558 520.18 171.558C522.876 171.558 525.183 172.269 527.101 173.691C529.03 175.114 530.174 176.951 530.533 179.202H523.909C523.687 178.472 523.229 177.885 522.536 177.439C521.856 176.994 521.064 176.771 520.161 176.771C518.466 176.771 517.143 177.569 516.19 179.165C515.238 180.748 514.83 182.895 514.966 185.604H515.096C515.615 184.268 516.481 183.21 517.693 182.431C518.906 181.639 520.359 181.243 522.054 181.243C524.577 181.243 526.674 182.078 528.344 183.748C530.026 185.418 530.867 187.521 530.867 190.057C530.867 192.877 529.865 195.184 527.861 196.978C525.857 198.771 523.291 199.668 520.161 199.668ZM520.087 194.417C521.274 194.417 522.276 194.015 523.093 193.211C523.922 192.407 524.336 191.424 524.336 190.261C524.336 189.086 523.928 188.102 523.111 187.311C522.307 186.519 521.305 186.123 520.105 186.123C518.906 186.123 517.897 186.519 517.081 187.311C516.277 188.102 515.875 189.079 515.875 190.242C515.875 191.417 516.283 192.407 517.1 193.211C517.916 194.015 518.912 194.417 520.087 194.417ZM545.173 199.668C541.66 199.668 538.889 198.412 536.86 195.901C534.832 193.39 533.817 189.945 533.817 185.566C533.817 181.188 534.832 177.755 536.86 175.269C538.901 172.782 541.672 171.539 545.173 171.539C548.661 171.539 551.42 172.782 553.448 175.269C555.477 177.755 556.491 181.181 556.491 185.548C556.491 189.914 555.477 193.359 553.448 195.883C551.432 198.406 548.674 199.668 545.173 199.668ZM541.926 192.079C542.73 193.601 543.812 194.361 545.173 194.361C546.534 194.361 547.604 193.607 548.383 192.098C549.174 190.576 549.57 188.399 549.57 185.566C549.57 182.734 549.174 180.575 548.383 179.091C547.604 177.594 546.534 176.846 545.173 176.846C543.812 176.846 542.73 177.594 541.926 179.091C541.134 180.588 540.738 182.74 540.738 185.548C540.738 188.381 541.134 190.558 541.926 192.079Z" fill="#F2F2F7"/>
<path d="M218.263 143V122.2H218.133L211.435 126.728V120.864L218.244 116.226H225.035V143H218.263ZM241.716 143.668C238.203 143.668 235.432 142.412 233.403 139.901C231.375 137.39 230.36 133.945 230.36 129.566C230.36 125.188 231.375 121.755 233.403 119.269C235.444 116.782 238.215 115.539 241.716 115.539C245.204 115.539 247.963 116.782 249.991 119.269C252.02 121.755 253.034 125.181 253.034 129.548C253.034 133.914 252.02 137.359 249.991 139.883C247.975 142.406 245.216 143.668 241.716 143.668ZM238.469 136.079C239.273 137.601 240.355 138.361 241.716 138.361C243.076 138.361 244.146 137.607 244.926 136.098C245.717 134.576 246.113 132.399 246.113 129.566C246.113 126.734 245.717 124.575 244.926 123.091C244.146 121.594 243.076 120.846 241.716 120.846C240.355 120.846 239.273 121.594 238.469 123.091C237.677 124.588 237.281 126.74 237.281 129.548C237.281 132.381 237.677 134.558 238.469 136.079ZM267.321 143.668C263.808 143.668 261.037 142.412 259.009 139.901C256.98 137.39 255.966 133.945 255.966 129.566C255.966 125.188 256.98 121.755 259.009 119.269C261.05 116.782 263.821 115.539 267.321 115.539C270.81 115.539 273.568 116.782 275.597 119.269C277.625 121.755 278.64 125.181 278.64 129.548C278.64 133.914 277.625 137.359 275.597 139.883C273.58 142.406 270.822 143.668 267.321 143.668ZM264.074 136.079C264.878 137.601 265.961 138.361 267.321 138.361C268.682 138.361 269.752 137.607 270.531 136.098C271.323 134.576 271.719 132.399 271.719 129.566C271.719 126.734 271.323 124.575 270.531 123.091C269.752 121.594 268.682 120.846 267.321 120.846C265.961 120.846 264.878 121.594 264.074 123.091C263.283 124.588 262.887 126.74 262.887 129.548C262.887 132.381 263.283 134.558 264.074 136.079Z" fill="#F2F2F7"/>
<path d="M448.893 143V122.2H448.763L442.064 126.728V120.864L448.874 116.226H455.665V143H448.893ZM474.034 143V138.658H460.805V132.962C462.005 130.649 463.378 128.218 464.924 125.67C466.482 123.109 468.511 119.961 471.01 116.226H480.473V133.352H483.812V138.658H480.473V143H474.034ZM466.575 133.407V133.593H474.22V120.827H474.09C472.296 123.499 470.849 125.744 469.748 127.562C468.66 129.368 467.602 131.317 466.575 133.407ZM497.691 143.668C494.178 143.668 491.408 142.412 489.379 139.901C487.35 137.39 486.336 133.945 486.336 129.566C486.336 125.188 487.35 121.755 489.379 119.269C491.42 116.782 494.191 115.539 497.691 115.539C501.18 115.539 503.938 116.782 505.967 119.269C507.995 121.755 509.01 125.181 509.01 129.548C509.01 133.914 507.995 137.359 505.967 139.883C503.951 142.406 501.192 143.668 497.691 143.668ZM494.444 136.079C495.248 137.601 496.331 138.361 497.691 138.361C499.052 138.361 500.122 137.607 500.901 136.098C501.693 134.576 502.089 132.399 502.089 129.566C502.089 126.734 501.693 124.575 500.901 123.091C500.122 121.594 499.052 120.846 497.691 120.846C496.331 120.846 495.248 121.594 494.444 123.091C493.653 124.588 493.257 126.74 493.257 129.548C493.257 132.381 493.653 134.558 494.444 136.079Z" fill="#F2F2F7"/>
<path d="M486.652 538.464C486.652 535.817 487.611 533.671 489.528 532.025C491.446 530.38 493.963 529.558 497.08 529.558C500.098 529.558 502.523 530.294 504.354 531.766C506.197 533.238 507.118 535.155 507.118 537.518C507.118 538.186 507.013 538.86 506.803 539.54C506.592 540.208 506.345 540.802 506.061 541.321C505.776 541.828 505.386 542.385 504.892 542.991C504.409 543.585 503.995 544.061 503.648 544.42C503.302 544.766 502.851 545.205 502.294 545.737L495.893 551.638V551.768H507.452V557H487.042V552.454L497.488 542.843C498.614 541.767 499.399 540.857 499.845 540.115C500.302 539.361 500.531 538.569 500.531 537.74C500.531 536.874 500.191 536.151 499.511 535.569C498.83 534.976 497.946 534.679 496.857 534.679C495.707 534.679 494.755 535.037 494 535.755C493.258 536.46 492.887 537.363 492.887 538.464V538.594H486.652V538.464ZM523.261 557V552.658H510.031V546.962C511.231 544.649 512.604 542.218 514.15 539.67C515.709 537.109 517.738 533.961 520.236 530.226H529.699V547.352H533.039V552.658H529.699V557H523.261ZM515.802 547.407V547.593H523.446V534.827H523.316C521.523 537.499 520.076 539.744 518.975 541.563C517.886 543.369 516.828 545.317 515.802 547.407ZM546.918 557.668C543.405 557.668 540.634 556.412 538.605 553.901C536.577 551.39 535.562 547.945 535.562 543.566C535.562 539.188 536.577 535.755 538.605 533.269C540.646 530.782 543.417 529.539 546.918 529.539C550.406 529.539 553.165 530.782 555.193 533.269C557.222 535.755 558.236 539.181 558.236 543.548C558.236 547.914 557.222 551.359 555.193 553.883C553.177 556.406 550.419 557.668 546.918 557.668ZM543.671 550.079C544.475 551.601 545.557 552.361 546.918 552.361C548.279 552.361 549.349 551.607 550.128 550.098C550.92 548.576 551.315 546.399 551.315 543.566C551.315 540.734 550.92 538.575 550.128 537.091C549.349 535.594 548.279 534.846 546.918 534.846C545.557 534.846 544.475 535.594 543.671 537.091C542.879 538.588 542.483 540.74 542.483 543.548C542.483 546.381 542.879 548.558 543.671 550.079Z" fill="#F2F2F7"/>
<path d="M318.945 467.135L324.447 459.857H331.391L324.588 468.049L331.795 479H324.623L319.965 471.775L318.84 473.129V479H312.6V453.635H318.84V467.135H318.945ZM332.85 479V459.857H338.914V463.549H339.037C339.412 462.307 340.092 461.322 341.076 460.596C342.061 459.857 343.203 459.488 344.504 459.488C345.934 459.488 347.111 459.846 348.037 460.561C348.963 461.264 349.561 462.266 349.83 463.566H349.953C350.328 462.336 351.049 461.352 352.115 460.613C353.193 459.863 354.442 459.488 355.859 459.488C357.734 459.488 359.252 460.092 360.412 461.299C361.572 462.494 362.152 464.065 362.152 466.01V479H355.912V467.592C355.912 465.565 355.016 464.551 353.223 464.551C352.379 464.551 351.711 464.832 351.219 465.395C350.727 465.957 350.481 466.707 350.481 467.645V479H344.522V467.522C344.522 466.561 344.293 465.828 343.836 465.324C343.379 464.809 342.723 464.551 341.867 464.551C341.024 464.551 340.35 464.838 339.846 465.412C339.342 465.986 339.09 466.742 339.09 467.68V479H332.85ZM369.447 484.484H363.594L372.611 453.635H378.465L369.447 484.484ZM380.346 479V453.635H386.445V463.461H386.568C387.061 462.172 387.817 461.188 388.836 460.508C389.867 459.828 391.109 459.488 392.563 459.488C394.684 459.488 396.318 460.127 397.467 461.404C398.627 462.67 399.207 464.44 399.207 466.713V479H392.984V468.066C392.984 466.965 392.715 466.109 392.176 465.5C391.637 464.879 390.863 464.568 389.856 464.568C388.824 464.568 388.022 464.902 387.447 465.57C386.873 466.238 386.586 467.117 386.586 468.207V479H380.346Z" fill="#F2F2F7"/>
<rect x="87.3224" y="538.878" width="26" height="4" rx="2" transform="rotate(-34.3056 87.3224 538.878)" fill="#F2F2F7"/>
<rect x="38.5661" y="424.228" width="26" height="4" rx="2" transform="rotate(-12.3933 38.5661 424.228)" fill="#F2F2F7"/>
<rect x="37.2321" y="294.356" width="26" height="4" rx="2" transform="rotate(10.5154 37.2321 294.356)" fill="#F2F2F7"/>
<rect x="83.4155" y="178.997" width="26" height="4" rx="2" transform="rotate(32.4206 83.4155 178.997)" fill="#F2F2F7"/>
<rect x="174.695" y="85.4547" width="26" height="4" rx="2" transform="rotate(55.476 174.695 85.4547)" fill="#F2F2F7"/>
<rect x="293.806" y="35.4319" width="26" height="4" rx="2" transform="rotate(78.2613 293.806 35.4319)" fill="#F2F2F7"/>
<rect x="424.355" y="35.7191" width="26" height="4" rx="2" transform="rotate(101.29 424.355 35.7191)" fill="#F2F2F7"/>
<rect x="543.137" y="86.1922" width="26" height="4" rx="2" transform="rotate(124.053 543.137 86.1922)" fill="#F2F2F7"/>
<rect x="633.827" y="179.762" width="26" height="4" rx="2" transform="rotate(147.038 633.827 179.762)" fill="#F2F2F7"/>
<rect x="680.474" y="299.562" width="26" height="4" rx="2" transform="rotate(169.711 680.474 299.562)" fill="#F2F2F7"/>
<rect x="677.305" y="428.226" width="26" height="4" rx="2" transform="rotate(-167.59 677.305 428.226)" fill="#F2F2F7"/>
<rect x="625.244" y="544.981" width="26" height="4" rx="2" transform="rotate(-145.046 625.244 544.981)" fill="#F2F2F7"/>
<path d="M554.485 355.464C554.485 352.817 555.444 350.671 557.361 349.025C559.279 347.38 561.796 346.558 564.913 346.558C567.931 346.558 570.356 347.294 572.187 348.766C574.03 350.238 574.951 352.155 574.951 354.518C574.951 355.186 574.846 355.86 574.636 356.54C574.425 357.208 574.178 357.802 573.894 358.321C573.609 358.828 573.219 359.385 572.725 359.991C572.242 360.585 571.828 361.061 571.481 361.42C571.135 361.766 570.684 362.205 570.127 362.737L563.726 368.638V368.768H575.285V374H554.875V369.454L565.321 359.843C566.447 358.767 567.232 357.857 567.678 357.115C568.135 356.361 568.364 355.569 568.364 354.74C568.364 353.874 568.024 353.151 567.344 352.569C566.663 351.976 565.779 351.679 564.69 351.679C563.54 351.679 562.588 352.037 561.833 352.755C561.091 353.46 560.72 354.363 560.72 355.464V355.594H554.485V355.464ZM589.479 374.668C585.966 374.668 583.196 373.412 581.167 370.901C579.138 368.39 578.124 364.945 578.124 360.566C578.124 356.188 579.138 352.755 581.167 350.269C583.208 347.782 585.979 346.539 589.479 346.539C592.968 346.539 595.726 347.782 597.755 350.269C599.784 352.755 600.798 356.181 600.798 360.548C600.798 364.914 599.784 368.359 597.755 370.883C595.739 373.406 592.98 374.668 589.479 374.668ZM586.232 367.079C587.036 368.601 588.119 369.361 589.479 369.361C590.84 369.361 591.91 368.607 592.689 367.098C593.481 365.576 593.877 363.399 593.877 360.566C593.877 357.734 593.481 355.575 592.689 354.091C591.91 352.594 590.84 351.846 589.479 351.846C588.119 351.846 587.036 352.594 586.232 354.091C585.441 355.588 585.045 357.74 585.045 360.548C585.045 363.381 585.441 365.558 586.232 367.079ZM615.085 374.668C611.572 374.668 608.801 373.412 606.772 370.901C604.744 368.39 603.729 364.945 603.729 360.566C603.729 356.188 604.744 352.755 606.772 350.269C608.813 347.782 611.584 346.539 615.085 346.539C618.573 346.539 621.332 347.782 623.36 350.269C625.389 352.755 626.403 356.181 626.403 360.548C626.403 364.914 625.389 368.359 623.36 370.883C621.344 373.406 618.586 374.668 615.085 374.668ZM611.838 367.079C612.642 368.601 613.724 369.361 615.085 369.361C616.446 369.361 617.516 368.607 618.295 367.098C619.087 365.576 619.482 363.399 619.482 360.566C619.482 357.734 619.087 355.575 618.295 354.091C617.516 352.594 616.446 351.846 615.085 351.846C613.724 351.846 612.642 352.594 611.838 354.091C611.046 355.588 610.65 357.74 610.65 360.548C610.65 363.381 611.046 365.558 611.838 367.079Z" fill="#F2F2F7"/>
<path d="M329.802 117V96.2002H329.672L322.974 100.728V94.8643L329.783 90.2256H336.574V117H329.802ZM341.788 98.4639C341.788 95.8167 342.747 93.6706 344.664 92.0254C346.581 90.3802 349.099 89.5576 352.216 89.5576C355.234 89.5576 357.659 90.2936 359.489 91.7656C361.332 93.2376 362.254 95.1549 362.254 97.5176C362.254 98.1855 362.149 98.8597 361.938 99.54C361.728 100.208 361.481 100.802 361.196 101.321C360.912 101.828 360.522 102.385 360.027 102.991C359.545 103.585 359.131 104.061 358.784 104.42C358.438 104.766 357.986 105.205 357.43 105.737L351.028 111.638V111.768H362.588V117H342.178V112.454L352.624 102.843C353.75 101.767 354.535 100.857 354.98 100.115C355.438 99.3607 355.667 98.569 355.667 97.7402C355.667 96.8743 355.327 96.1507 354.646 95.5693C353.966 94.9756 353.082 94.6787 351.993 94.6787C350.843 94.6787 349.89 95.0374 349.136 95.7549C348.394 96.46 348.022 97.363 348.022 98.4639V98.5938H341.788V98.4639ZM376.782 117.668C373.269 117.668 370.498 116.412 368.47 113.901C366.441 111.39 365.427 107.945 365.427 103.566C365.427 99.1875 366.441 95.7549 368.47 93.2686C370.511 90.7822 373.282 89.5391 376.782 89.5391C380.271 89.5391 383.029 90.7822 385.058 93.2686C387.086 95.7549 388.101 99.1813 388.101 103.548C388.101 107.914 387.086 111.359 385.058 113.883C383.041 116.406 380.283 117.668 376.782 117.668ZM373.535 110.079C374.339 111.601 375.422 112.361 376.782 112.361C378.143 112.361 379.213 111.607 379.992 110.098C380.784 108.576 381.18 106.399 381.18 103.566C381.18 100.734 380.784 98.5752 379.992 97.0908C379.213 95.5941 378.143 94.8457 376.782 94.8457C375.422 94.8457 374.339 95.5941 373.535 97.0908C372.743 98.5876 372.348 100.74 372.348 103.548C372.348 106.381 372.743 108.558 373.535 110.079Z" fill="#F2F2F7"/>
<defs>
<linearGradient id="paint0_linear_1_6" x1="360" y1="3.05176e-05" x2="360" y2="720" gradientUnits="userSpaceOnUse">
<stop stop-color="#444446"/>
<stop offset="1" stop-color="#242426"/>
</linearGradient>
<linearGradient id="paint1_linear_1_6" x1="748.5" y1="402.5" x2="359" y2="358.5" gradientUnits="userSpaceOnUse">
<stop stop-color="#D25149"/>
<stop offset="0.526687" stop-color="#FF453A" stop-opacity="0"/>
</linearGradient>
<linearGradient id="paint2_linear_1_6" x1="360" y1="327" x2="360" y2="393" gradientUnits="userSpaceOnUse">
<stop stop-color="#14181C"/>
<stop offset="0.458786" stop-color="#313D47"/>
<stop offset="0.979806"/>
</linearGradient>
</defs>
</svg>
